<?xml version="1.0" standalone="no"?>
<!DOCTYPE svg PUBLIC "-//W3C//DTD SVG 20010904//EN"
 "http://www.w3.org/TR/2001/REC-SVG-20010904/DTD/svg10.dtd">
<svg version="1.0" xmlns="http://www.w3.org/2000/svg"
 width="128.000000pt" height="128.000000pt" viewBox="0 0 128.000000 128.000000"
 preserveAspectRatio="xMidYMid meet">

<g transform="translate(0.000000,128.000000) scale(0.100000,-0.100000)"
fill="#000000" stroke="none">
<path d="M65 1271 c-11 -5 -29 -19 -40 -31 -20 -22 -20 -36 -20 -601 l0 -579
28 -27 27 -28 333 0 c288 0 332 2 332 15 0 13 -45 16 -323 20 l-324 5 -19 24
c-18 22 -19 47 -19 573 l0 549 25 24 24 25 414 0 c393 0 416 -1 438 -19 l24
-19 3 -295 3 -295 -38 -7 c-153 -28 -256 -148 -257 -300 0 -93 29 -159 99
-224 151 -138 384 -91 476 95 34 69 34 189 0 254 -43 83 -139 166 -164 141 -7
-7 9 -29 56 -73 56 -54 68 -72 82 -122 72 -249 -231 -439 -420 -265 -61 56
-86 112 -86 192 0 143 80 229 246 264 l40 8 3 308 c2 260 0 312 -13 337 -31
60 -33 60 -492 59 -230 0 -427 -4 -438 -8z"/>
<path d="M150 1140 c-17 -17 -20 -33 -20 -119 0 -150 -22 -141 362 -141 269 0
309 2 315 15 3 9 2 19 -2 23 -3 4 -147 9 -318 12 l-312 5 -3 81 c-2 60 1 84
11 93 11 8 100 11 328 9 l314 -3 5 -67 c5 -72 11 -84 35 -75 25 10 21 127 -6
161 l-20 26 -335 0 c-321 0 -335 -1 -354 -20z"/>
<path d="M706 1071 c-3 -5 1 -16 9 -24 8 -9 15 -32 15 -52 0 -29 3 -36 18 -33
14 3 17 14 17 58 0 52 -1 55 -27 58 -14 2 -29 -1 -32 -7z"/>
<path d="M150 790 c-27 -27 -28 -119 -2 -143 23 -21 139 -24 165 -4 34 24 34
118 1 151 -24 25 -138 22 -164 -4z m138 -73 l3 -48 -58 3 -58 3 -3 39 c-4 48
8 57 68 54 l45 -3 3 -48z"/>
<path d="M420 790 c-27 -27 -28 -119 -2 -143 24 -22 139 -24 168 -3 27 20 27
115 0 145 -27 30 -136 31 -166 1z m138 -73 l3 -48 -58 3 -58 3 -3 39 c-4 48 8
57 68 54 l45 -3 3 -48z"/>
<path d="M690 790 c-25 -25 -27 -105 -4 -138 13 -19 24 -22 85 -22 89 0 109
17 109 90 0 72 -21 90 -105 90 -52 0 -69 -4 -85 -20z m138 -73 l3 -48 -58 3
c-58 3 -58 3 -61 36 -5 48 12 64 67 60 l46 -3 3 -48z"/>
<path d="M147 532 c-11 -12 -17 -36 -17 -70 0 -73 21 -92 100 -92 52 0 65 4
87 26 22 22 25 32 21 74 -7 72 -18 80 -103 80 -57 0 -75 -4 -88 -18z m143 -67
l0 -45 -60 0 -60 0 0 38 c0 21 3 42 7 45 3 4 30 7 60 7 l53 0 0 -45z"/>
<path d="M417 532 c-11 -12 -17 -36 -17 -70 0 -73 21 -92 99 -92 83 0 106 20
106 93 0 77 -12 87 -100 87 -57 0 -75 -4 -88 -18z m143 -67 l0 -45 -60 0 -60
0 0 38 c0 21 3 42 7 45 3 4 30 7 60 7 l53 0 0 -45z"/>
<path d="M954 466 c-3 -14 -12 -26 -18 -26 -23 0 -56 -46 -56 -78 0 -39 29
-68 78 -77 54 -10 74 -23 70 -48 -5 -33 -52 -46 -90 -24 -38 22 -48 21 -48 -3
0 -11 11 -25 26 -33 14 -7 31 -24 37 -38 15 -29 41 -32 45 -4 2 11 17 29 34
40 42 27 55 67 33 101 -17 26 -33 35 -102 53 -30 8 -43 17 -43 29 0 41 59 56
104 27 20 -13 25 -14 35 -1 10 11 8 18 -10 35 -13 12 -28 21 -35 21 -7 0 -14
10 -16 22 -4 33 -36 35 -44 4z"/>
<path d="M170 293 c-28 -10 -40 -37 -40 -88 0 -72 17 -85 108 -85 62 0 73 3
86 22 25 36 21 104 -9 133 -20 21 -34 25 -77 24 -29 0 -60 -3 -68 -6z m120
-88 l0 -46 -57 3 -58 3 -3 43 -3 42 60 0 61 0 0 -45z"/>
<path d="M440 293 c-28 -10 -40 -37 -40 -88 0 -72 17 -85 107 -85 86 0 98 11
98 87 0 71 -24 93 -99 92 -28 0 -58 -3 -66 -6z m120 -88 l0 -46 -57 3 -58 3
-3 43 -3 42 60 0 61 0 0 -45z"/>
</g>
</svg>
