<svg xmlns="http://www.w3.org/2000/svg" xmlns:xlink="http://www.w3.org/1999/xlink" width="360" zoomAndPan="magnify" viewBox="0 0 270 48.75" height="65" preserveAspectRatio="xMidYMid meet" version="1.0"><defs><g/><clipPath id="id1"><path d="M 0.6875 0 L 269.308594 0 L 269.308594 48.5 L 0.6875 48.5 Z M 0.6875 0 " clip-rule="nonzero"/></clipPath></defs><g clip-path="url(#id1)"><path fill="#ffffff" d="M 0.6875 0 L 269.3125 0 L 269.3125 55.21875 L 0.6875 55.21875 Z M 0.6875 0 " fill-opacity="1" fill-rule="nonzero"/><path fill="#ffffff" d="M 0.6875 0 L 269.3125 0 L 269.3125 48.5 L 0.6875 48.5 Z M 0.6875 0 " fill-opacity="1" fill-rule="nonzero"/><path fill="#ffffff" d="M 0.6875 0 L 269.3125 0 L 269.3125 48.5 L 0.6875 48.5 Z M 0.6875 0 " fill-opacity="1" fill-rule="nonzero"/><path fill="#ffffff" d="M 0.6875 0 L 269.3125 0 L 269.3125 48.5 L 0.6875 48.5 Z M 0.6875 0 " fill-opacity="1" fill-rule="nonzero"/></g><g fill="#3f53a2" fill-opacity="1"><g transform="translate(6.105369, 38.875664)"><g><path d="M 3.84375 0 L 3.84375 -30.546875 L 10.3125 -30.546875 L 10.3125 0 Z M 3.84375 0 "/></g></g></g><g fill="#3f53a2" fill-opacity="1"><g transform="translate(28.395116, 38.875664)"><g><path d="M 30.9375 0 L 22.703125 0 L 9.421875 -23.109375 L 9.234375 -23.109375 C 9.492188 -19.023438 9.625 -16.113281 9.625 -14.375 L 9.625 0 L 3.84375 0 L 3.84375 -30.546875 L 12.015625 -30.546875 L 25.28125 -7.671875 L 25.421875 -7.671875 C 25.210938 -11.640625 25.109375 -14.441406 25.109375 -16.078125 L 25.109375 -30.546875 L 30.9375 -30.546875 Z M 30.9375 0 "/></g></g></g><g fill="#3f53a2" fill-opacity="1"><g transform="translate(71.300408, 38.875664)"><g><path d="M 21.875 -8.484375 C 21.875 -5.722656 20.878906 -3.546875 18.890625 -1.953125 C 16.910156 -0.367188 14.148438 0.421875 10.609375 0.421875 C 7.347656 0.421875 4.46875 -0.191406 1.96875 -1.421875 L 1.96875 -7.4375 C 4.03125 -6.519531 5.773438 -5.875 7.203125 -5.5 C 8.628906 -5.125 9.929688 -4.9375 11.109375 -4.9375 C 12.535156 -4.9375 13.625 -5.207031 14.375 -5.75 C 15.132812 -6.289062 15.515625 -7.097656 15.515625 -8.171875 C 15.515625 -8.765625 15.347656 -9.296875 15.015625 -9.765625 C 14.679688 -10.234375 14.191406 -10.679688 13.546875 -11.109375 C 12.898438 -11.546875 11.582031 -12.238281 9.59375 -13.1875 C 7.71875 -14.0625 6.3125 -14.898438 5.375 -15.703125 C 4.445312 -16.515625 3.703125 -17.457031 3.140625 -18.53125 C 2.585938 -19.601562 2.3125 -20.851562 2.3125 -22.28125 C 2.3125 -24.988281 3.226562 -27.113281 5.0625 -28.65625 C 6.894531 -30.207031 9.425781 -30.984375 12.65625 -30.984375 C 14.25 -30.984375 15.765625 -30.789062 17.203125 -30.40625 C 18.640625 -30.03125 20.144531 -29.503906 21.71875 -28.828125 L 19.640625 -23.796875 C 18.003906 -24.460938 16.65625 -24.925781 15.59375 -25.1875 C 14.53125 -25.457031 13.484375 -25.59375 12.453125 -25.59375 C 11.222656 -25.59375 10.28125 -25.304688 9.625 -24.734375 C 8.96875 -24.160156 8.640625 -23.414062 8.640625 -22.5 C 8.640625 -21.925781 8.769531 -21.425781 9.03125 -21 C 9.300781 -20.570312 9.722656 -20.160156 10.296875 -19.765625 C 10.878906 -19.367188 12.25 -18.65625 14.40625 -17.625 C 17.269531 -16.257812 19.226562 -14.890625 20.28125 -13.515625 C 21.34375 -12.148438 21.875 -10.472656 21.875 -8.484375 Z M 21.875 -8.484375 "/></g></g></g><g fill="#3f53a2" fill-opacity="1"><g transform="translate(102.989336, 38.875664)"><g><path d="M 28.703125 -30.546875 L 28.703125 -10.78125 C 28.703125 -8.519531 28.195312 -6.539062 27.1875 -4.84375 C 26.175781 -3.144531 24.71875 -1.84375 22.8125 -0.9375 C 20.90625 -0.03125 18.648438 0.421875 16.046875 0.421875 C 12.117188 0.421875 9.066406 -0.582031 6.890625 -2.59375 C 4.722656 -4.613281 3.640625 -7.367188 3.640625 -10.859375 L 3.640625 -30.546875 L 10.09375 -30.546875 L 10.09375 -11.84375 C 10.09375 -9.488281 10.566406 -7.757812 11.515625 -6.65625 C 12.460938 -5.5625 14.023438 -5.015625 16.203125 -5.015625 C 18.328125 -5.015625 19.863281 -5.566406 20.8125 -6.671875 C 21.769531 -7.773438 22.25 -9.515625 22.25 -11.890625 L 22.25 -30.546875 Z M 28.703125 -30.546875 "/></g></g></g><g fill="#3f53a2" fill-opacity="1"><g transform="translate(143.450835, 38.875664)"><g><path d="M 10.3125 -16.984375 L 12.40625 -16.984375 C 14.457031 -16.984375 15.96875 -17.320312 16.9375 -18 C 17.914062 -18.6875 18.40625 -19.757812 18.40625 -21.21875 C 18.40625 -22.664062 17.90625 -23.695312 16.90625 -24.3125 C 15.914062 -24.925781 14.375 -25.234375 12.28125 -25.234375 L 10.3125 -25.234375 Z M 10.3125 -11.71875 L 10.3125 0 L 3.84375 0 L 3.84375 -30.546875 L 12.75 -30.546875 C 16.894531 -30.546875 19.960938 -29.785156 21.953125 -28.265625 C 23.941406 -26.753906 24.9375 -24.460938 24.9375 -21.390625 C 24.9375 -19.597656 24.441406 -18 23.453125 -16.59375 C 22.460938 -15.195312 21.066406 -14.101562 19.265625 -13.3125 C 23.859375 -6.445312 26.851562 -2.007812 28.25 0 L 21.0625 0 L 13.765625 -11.71875 Z M 10.3125 -11.71875 "/></g></g></g><g fill="#3f53a2" fill-opacity="1"><g transform="translate(179.818468, 38.875664)"><g><path d="M 21.4375 0 L 3.84375 0 L 3.84375 -30.546875 L 21.4375 -30.546875 L 21.4375 -25.234375 L 10.3125 -25.234375 L 10.3125 -18.53125 L 20.65625 -18.53125 L 20.65625 -13.21875 L 10.3125 -13.21875 L 10.3125 -5.34375 L 21.4375 -5.34375 Z M 21.4375 0 "/></g></g></g><g fill="#3f53a2" fill-opacity="1"><g transform="translate(211.904256, 38.875664)"><g><path d="M 29.1875 -15.5625 C 29.1875 -10.53125 27.753906 -6.675781 24.890625 -4 C 22.023438 -1.332031 17.890625 0 12.484375 0 L 3.84375 0 L 3.84375 -30.546875 L 13.4375 -30.546875 C 18.414062 -30.546875 22.285156 -29.226562 25.046875 -26.59375 C 27.804688 -23.957031 29.1875 -20.28125 29.1875 -15.5625 Z M 22.453125 -15.390625 C 22.453125 -21.953125 19.554688 -25.234375 13.765625 -25.234375 L 10.3125 -25.234375 L 10.3125 -5.34375 L 13.09375 -5.34375 C 19.332031 -5.34375 22.453125 -8.691406 22.453125 -15.390625 Z M 22.453125 -15.390625 "/></g></g></g><g fill="#3f53a2" fill-opacity="1"><g transform="translate(251.697357, 38.875664)"><g><path d="M 2.4375 -2.984375 C 2.4375 -4.148438 2.75 -5.03125 3.375 -5.625 C 4.007812 -6.226562 4.925781 -6.53125 6.125 -6.53125 C 7.28125 -6.53125 8.171875 -6.222656 8.796875 -5.609375 C 9.429688 -5.003906 9.75 -4.128906 9.75 -2.984375 C 9.75 -1.890625 9.425781 -1.023438 8.78125 -0.390625 C 8.144531 0.242188 7.257812 0.5625 6.125 0.5625 C 4.945312 0.5625 4.035156 0.253906 3.390625 -0.359375 C 2.753906 -0.984375 2.4375 -1.859375 2.4375 -2.984375 Z M 2.4375 -2.984375 "/></g></g></g></svg>