<?xml version="1.0" standalone="no"?>
<!DOCTYPE svg PUBLIC "-//W3C//DTD SVG 20010904//EN"
 "http://www.w3.org/TR/2001/REC-SVG-20010904/DTD/svg10.dtd">
<svg version="1.0" xmlns="http://www.w3.org/2000/svg"
 width="64.000000pt" height="64.000000pt" viewBox="0 0 64.000000 64.000000"
 preserveAspectRatio="xMidYMid meet">

<g transform="translate(0.000000,64.000000) scale(0.100000,-0.100000)"
fill="#000000" stroke="none">
<path d="M213 503 c-26 -10 -11 -34 70 -105 45 -40 82 -75 82 -78 0 -3 -37
-38 -82 -78 -83 -73 -97 -95 -67 -106 11 -4 44 17 101 66 46 40 93 79 104 87
10 7 19 21 19 30 0 14 -199 193 -211 190 -2 0 -10 -3 -16 -6z"/>
</g>
</svg>
