<?xml version="1.0" standalone="no"?>
<!DOCTYPE svg PUBLIC "-//W3C//DTD SVG 20010904//EN"
 "http://www.w3.org/TR/2001/REC-SVG-20010904/DTD/svg10.dtd">
<svg version="1.0" xmlns="http://www.w3.org/2000/svg"
 width="128.000000pt" height="128.000000pt" viewBox="0 0 128.000000 128.000000"
 preserveAspectRatio="xMidYMid meet">

<g transform="translate(0.000000,128.000000) scale(0.100000,-0.100000)"
fill="#000000" stroke="none">
<path d="M456 1267 c-10 -8 -21 -31 -25 -53 -6 -38 -8 -39 -48 -42 -31 -2 -48
-10 -62 -28 -18 -22 -25 -24 -115 -24 -90 0 -99 -2 -121 -25 l-25 -24 0 -506
c0 -311 4 -513 10 -525 19 -36 62 -40 437 -40 394 0 426 4 438 52 3 13 5 68 3
123 -2 81 -6 100 -18 100 -12 0 -16 -20 -18 -105 -2 -84 -6 -107 -19 -117 -22
-17 -744 -19 -774 -3 -18 10 -19 27 -19 508 0 374 3 501 12 510 8 8 46 12 105
12 l93 0 0 -28 c0 -49 11 -52 195 -52 184 0 195 3 195 52 l0 28 94 0 c64 0 97
-4 104 -13 6 -7 12 -40 14 -72 2 -45 7 -60 18 -60 12 0 16 15 18 67 3 61 0 71
-22 93 -23 23 -32 25 -122 25 -90 0 -97 2 -115 24 -14 18 -31 26 -62 28 -40 3
-42 4 -48 42 -7 46 -30 66 -74 66 -17 0 -39 -6 -49 -13z m82 -69 c4 -46 31
-68 84 -68 l38 0 0 -45 0 -45 -155 0 -155 0 0 45 0 45 38 0 c52 0 82 23 82 64
0 40 7 48 40 44 21 -3 25 -9 28 -40z"/>
<path d="M163 1044 c-10 -5 -13 -110 -13 -480 l0 -474 355 0 355 0 0 95 c0 88
-1 95 -20 95 -18 0 -20 -7 -20 -75 l0 -75 -315 0 -315 0 0 440 0 440 31 0 c24
0 30 4 27 18 -3 17 -58 27 -85 16z"/>
<path d="M763 1043 c-28 -11 -13 -33 21 -33 34 0 35 -1 38 -42 2 -30 8 -43 18
-43 20 0 27 104 8 116 -14 9 -65 11 -85 2z"/>
<path d="M286 881 c-8 -13 20 -33 41 -29 10 2 19 11 21 21 3 13 -3 17 -27 17
-16 0 -32 -4 -35 -9z"/>
<path d="M426 881 c-15 -23 26 -32 140 -29 104 3 119 5 122 21 3 15 -8 17
-127 17 -71 0 -132 -4 -135 -9z"/>
<path d="M842 862 c-73 -27 -122 -69 -157 -137 -59 -115 -32 -255 66 -339 81
-69 212 -86 304 -38 47 24 106 83 130 132 26 51 31 147 11 207 -48 143 -213
225 -354 175z m195 -50 c126 -65 170 -220 97 -339 -76 -123 -250 -150 -355
-56 -60 54 -83 105 -83 183 0 179 183 292 341 212z"/>
<path d="M905 773 c-35 -9 -65 -44 -65 -78 0 -17 3 -35 7 -38 11 -11 33 14 33
38 0 45 87 54 104 10 11 -30 6 -43 -35 -91 -31 -36 -39 -53 -37 -78 4 -42 30
-41 39 1 3 18 20 45 36 61 58 53 52 136 -12 166 -34 17 -37 17 -70 9z"/>
<path d="M917 454 c-9 -10 2 -24 19 -24 8 0 14 7 14 15 0 15 -21 21 -33 9z"/>
<path d="M284 759 c-3 -6 -2 -15 4 -21 15 -15 56 -5 60 15 3 13 -3 17 -27 17
-16 0 -33 -5 -37 -11z"/>
<path d="M426 762 c-14 -23 13 -33 90 -30 62 2 79 6 79 18 0 12 -17 16 -82 18
-45 1 -84 -1 -87 -6z"/>
<path d="M285 640 c-11 -17 5 -30 36 -30 22 0 29 5 29 20 0 15 -7 20 -29 20
-17 0 -33 -4 -36 -10z"/>
<path d="M425 640 c-14 -22 12 -31 81 -28 53 2 69 6 69 18 0 12 -16 16 -72 18
-45 2 -74 -1 -78 -8z"/>
<path d="M285 521 c-11 -18 5 -31 36 -31 24 0 30 4 27 18 -4 19 -52 29 -63 13z"/>
<path d="M426 515 c-8 -22 10 -27 85 -23 49 2 64 7 64 18 0 23 -140 27 -149 5z"/>
<path d="M291 401 c-21 -13 -4 -31 30 -31 24 0 30 4 27 18 -4 19 -36 27 -57
13z"/>
<path d="M432 397 c-19 -23 -3 -27 100 -27 89 0 99 2 96 18 -3 14 -17 17 -94
20 -68 2 -94 -1 -102 -11z"/>
<path d="M286 271 c-8 -13 20 -33 41 -29 10 2 19 11 21 21 3 13 -3 17 -27 17
-16 0 -32 -4 -35 -9z"/>
<path d="M427 273 c-4 -3 -2 -12 4 -20 16 -19 332 -19 348 0 6 8 8 17 4 20 -8
9 -348 9 -356 0z"/>
</g>
</svg>
