<?xml version="1.0" standalone="no"?>
<!DOCTYPE svg PUBLIC "-//W3C//DTD SVG 20010904//EN"
 "http://www.w3.org/TR/2001/REC-SVG-20010904/DTD/svg10.dtd">
<svg version="1.0" xmlns="http://www.w3.org/2000/svg"
 width="128.000000pt" height="128.000000pt" viewBox="0 0 128.000000 128.000000"
 preserveAspectRatio="xMidYMid meet">

<g transform="translate(0.000000,128.000000) scale(0.100000,-0.100000)"
fill="#000000" stroke="none">
<path d="M204 1267 c-2 -7 -3 -56 -2 -108 2 -76 6 -94 18 -94 12 0 16 18 18
88 l3 87 399 0 400 0 0 -289 c0 -285 0 -289 -21 -294 -12 -3 -19 -12 -17 -19
3 -9 37 -14 119 -18 l114 -5 3 -168 2 -169 -22 8 c-13 4 -39 12 -58 19 l-35
12 -3 86 c-3 79 -1 87 16 87 26 0 34 11 21 27 -15 17 -103 17 -118 0 -13 -16
-5 -27 21 -27 16 0 18 -9 18 -75 0 -41 -3 -75 -6 -75 -4 0 -24 5 -45 12 l-39
11 0 79 c0 70 -2 79 -17 76 -15 -3 -19 -16 -21 -71 -3 -65 -4 -68 -25 -61 -30
9 -28 5 -41 71 -9 47 -15 58 -31 58 -14 0 -22 -11 -32 -45 -22 -77 -25 -78
-42 -15 -13 46 -22 61 -38 63 -18 3 -22 -6 -37 -86 -20 -111 -20 -114 1 -110
13 2 21 19 28 58 l11 55 19 -60 c25 -74 44 -78 65 -13 21 64 26 66 35 12 4
-32 12 -48 24 -51 11 -3 24 -24 33 -54 l16 -49 -336 -2 c-312 -3 -337 -4 -340
-21 -3 -16 19 -17 345 -17 l348 0 30 -87 c19 -56 35 -88 44 -88 8 0 32 29 52
65 46 78 80 110 120 110 18 0 39 9 54 25 25 24 25 26 25 215 0 189 0 191 -25
215 -21 22 -33 25 -99 25 l-76 0 -2 308 -3 307 -433 3 c-353 2 -433 0 -438
-11z m872 -972 c70 -24 129 -46 131 -49 2 -2 -21 -18 -51 -35 -42 -25 -62 -45
-87 -87 -17 -30 -33 -53 -35 -51 -5 4 -94 255 -94 262 0 8 4 7 136 -40z"/>
<path d="M300 990 l0 -191 138 3 137 3 0 185 0 185 -137 3 -138 3 0 -191z
m240 5 l0 -155 -100 0 -100 0 0 155 0 155 100 0 100 0 0 -155z"/>
<path d="M632 1123 l3 -58 170 0 170 0 3 58 3 57 -176 0 -176 0 3 -57z m308 2
l0 -25 -135 0 -135 0 0 25 0 25 135 0 135 0 0 -25z"/>
<path d="M207 1004 c-4 -4 -7 -83 -7 -176 l0 -168 -75 0 c-67 0 -79 -3 -100
-25 -25 -24 -25 -25 -25 -219 l0 -195 27 -21 c23 -18 38 -20 102 -18 60 2 76
6 76 18 0 12 -18 16 -80 20 l-80 5 0 195 0 195 450 5 c391 4 450 7 450 20 0
13 -47 15 -352 18 l-353 2 -2 172 c-3 161 -9 194 -31 172z"/>
<path d="M635 1000 c-16 -25 13 -30 176 -30 157 0 170 1 167 18 -3 15 -20 17
-170 20 -106 1 -169 -1 -173 -8z"/>
<path d="M635 920 c-16 -25 13 -30 176 -30 157 0 170 1 167 18 -3 15 -20 17
-170 20 -106 1 -169 -1 -173 -8z"/>
<path d="M641 831 c-36 -23 5 -31 170 -31 157 0 170 1 167 18 -3 15 -20 17
-163 19 -88 2 -166 -1 -174 -6z"/>
<path d="M300 725 c0 -13 11 -15 63 -13 34 2 62 8 62 13 0 6 -28 11 -62 13
-52 2 -63 0 -63 -13z"/>
<path d="M480 725 c0 -13 34 -15 250 -15 216 0 250 2 250 15 0 13 -34 15 -250
15 -216 0 -250 -2 -250 -15z"/>
<path d="M512 522 c-9 -6 -12 -35 -10 -108 l3 -99 51 0 c69 1 88 17 80 69 -4
23 -6 55 -6 72 0 18 -8 38 -19 48 -22 20 -80 30 -99 18z m75 -48 c6 -16 -12
-34 -34 -34 -7 0 -13 11 -13 25 0 18 5 25 20 25 11 0 23 -7 27 -16z m13 -79
c17 -20 -3 -45 -36 -45 -20 0 -24 5 -24 30 0 25 4 30 24 30 13 0 29 -7 36 -15z"/>
<path d="M134 495 c-23 -35 -10 -62 43 -88 48 -23 55 -35 29 -52 -12 -7 -25
-5 -48 8 -39 22 -61 8 -34 -22 37 -41 120 -31 132 15 10 38 -4 59 -51 82 -25
12 -45 26 -45 31 0 15 29 21 57 10 18 -7 30 -6 37 1 17 17 -21 40 -66 40 -29
0 -41 -6 -54 -25z"/>
<path d="M300 443 c1 -81 8 -101 48 -122 17 -9 31 -10 54 -2 48 17 57 37 58
124 0 70 -2 77 -20 77 -17 0 -19 -8 -22 -76 -2 -60 -7 -79 -20 -88 -13 -8 -23
-8 -35 0 -14 9 -19 28 -21 88 -3 68 -5 76 -22 76 -18 0 -20 -7 -20 -77z"/>
</g>
</svg>
